<svg width="166" height="48" viewBox="0 0 166 48" fill="none" xmlns="http://www.w3.org/2000/svg">
<path d="M2.24674 13.7311L11.8021 13.7311L22.6017 24.5779L22.6882 34.2373L13.1133 34.1658L2.17695 23.305L2.24674 13.7311Z" stroke="white" stroke-width="3.24562"/>
<path d="M25.8897 13.7311L35.4451 13.7311L46.2446 24.5779L46.3311 34.2373L36.7563 34.1658L25.8199 23.305L25.8897 13.7311Z" stroke="white" stroke-width="3.24562"/>
<path d="M63.8064 12.7413H71.2635C72.2858 12.7413 73.2079 12.8014 74.0298 12.9217C74.8717 13.042 75.6235 13.3226 76.285 13.7636C76.8663 14.1445 77.3574 14.6858 77.7584 15.3874C78.1593 16.089 78.3597 16.981 78.3597 18.0635C78.3597 19.146 78.1092 20.1082 77.608 20.9501C77.1269 21.792 76.3752 22.4135 75.3528 22.8144C76.716 23.0549 77.7383 23.6363 78.4199 24.5584C79.1014 25.4604 79.4422 26.6331 79.4422 28.0764C79.3821 29.3995 79.1014 30.4318 78.6003 31.1735C78.0991 31.9152 77.4577 32.4966 76.6759 32.9175C75.8941 33.3385 75.0121 33.6292 74.0298 33.7895C73.0676 33.9298 72.0954 34 71.1131 34H63.8064V12.7413ZM66.4224 15.1167V22.0627H70.5118C71.073 22.0627 71.6544 22.0226 72.2558 21.9424C72.8571 21.8622 73.3984 21.6918 73.8795 21.4312C74.4408 21.1506 74.8918 20.7697 75.2326 20.2886C75.5934 19.7874 75.7838 19.1059 75.8039 18.2439C75.8039 17.5623 75.6836 17.0211 75.4431 16.6202C75.2025 16.1992 74.8717 15.8785 74.4508 15.658C74.0298 15.4375 73.5487 15.2972 73.0075 15.237C72.4662 15.1568 71.8949 15.1167 71.2935 15.1167H66.4224ZM71.0229 31.6246C71.6644 31.6246 72.3059 31.5945 72.9473 31.5344C73.6089 31.4742 74.2303 31.3239 74.8116 31.0833C75.413 30.8227 75.8941 30.4519 76.2549 29.9708C76.6157 29.4696 76.7962 28.7981 76.7962 27.9562C76.7962 27.2345 76.6558 26.6431 76.3752 26.1821C76.1146 25.721 75.7538 25.3602 75.2927 25.0996C74.8517 24.839 74.3405 24.6586 73.7592 24.5584C73.1779 24.4581 72.5865 24.408 71.9851 24.408H66.4224V31.6246H71.0229ZM82.9384 34V18.1537H85.4041L85.5243 20.5592C85.7849 20.1182 86.1057 19.7373 86.4866 19.4166C86.8875 19.0959 87.3185 18.8252 87.7795 18.6047C88.2406 18.3842 88.7217 18.2239 89.2228 18.1236C89.744 18.0234 90.2452 17.9733 90.7263 17.9733C91.8689 17.9733 92.8311 18.1637 93.6129 18.5446C94.3947 18.9054 95.0161 19.4166 95.4771 20.0781C95.9382 20.7196 96.269 21.4913 96.4694 22.3934C96.6699 23.2754 96.7701 24.2276 96.7701 25.25V34H94.2143V25.9415C94.2143 25.1998 94.1641 24.4882 94.0639 23.8066C93.9837 23.1251 93.8033 22.5237 93.5227 22.0025C93.2621 21.4613 92.8812 21.0303 92.3801 20.7096C91.8789 20.3888 91.2074 20.2285 90.3654 20.2285C89.5436 20.2485 88.8119 20.449 88.1704 20.8298C87.549 21.2107 87.0478 21.6617 86.667 22.1829C86.2059 22.8444 85.8952 23.5761 85.7348 24.378C85.5745 25.1597 85.4943 25.9516 85.4943 26.7534V34H82.9384ZM100.704 34V12.7413H103.26V24.9793H106.026L110.777 18.1537H113.663L108.371 25.701L114.114 34H111.108L106.327 27.2044H103.26V34H100.704ZM116.325 34V12.7413H118.881V34H116.325ZM136.825 18.1537V34C136.825 36.3053 136.224 38.0593 135.021 39.2621C133.818 40.4849 132.104 41.0963 129.879 41.0963C128.536 41.0762 127.323 40.8958 126.241 40.555C125.178 40.2343 124.196 39.6529 123.294 38.811L124.406 36.7964C125.188 37.4178 126.02 37.909 126.902 38.2698C127.804 38.6306 128.746 38.811 129.729 38.811C130.551 38.811 131.252 38.6807 131.833 38.4201C132.415 38.1796 132.886 37.8288 133.247 37.3677C133.628 36.9267 133.898 36.3955 134.059 35.7741C134.239 35.1526 134.329 34.4811 134.329 33.7594V31.8651C134.069 32.266 133.738 32.6269 133.337 32.9476C132.956 33.2483 132.535 33.4989 132.074 33.6993C131.633 33.8797 131.152 34.01 130.631 34.0902C130.13 34.1904 129.618 34.2406 129.097 34.2406C127.894 34.2205 126.892 34.0301 126.09 33.6692C125.309 33.3084 124.677 32.8073 124.196 32.1658C123.735 31.5243 123.404 30.7626 123.204 29.8806C123.003 28.9785 122.903 27.9862 122.903 26.9037V18.1537H125.459V26.1821C125.459 26.9037 125.499 27.6154 125.579 28.317C125.679 29.0186 125.87 29.64 126.15 30.1813C126.431 30.7225 126.842 31.1635 127.383 31.5043C127.925 31.825 128.646 31.9854 129.548 31.9854C130.45 31.9854 131.212 31.7949 131.833 31.4141C132.475 31.0332 132.966 30.5521 133.307 29.9708C133.688 29.3694 133.938 28.7079 134.059 27.9862C134.199 27.2646 134.269 26.5229 134.269 25.7611V18.1537H136.825ZM160.946 12.7413H164.104L157.489 23.2955L164.344 34H161.187L155.835 25.4905L150.422 34H147.355L154.181 23.3857L147.566 12.7413H150.753L155.865 21.2207L160.946 12.7413Z" fill="white"/>
</svg>
